<svg width="324" height="75" viewBox="0 0 324 75" fill="none" xmlns="http://www.w3.org/2000/svg">
<path fill-rule="evenodd" clip-rule="evenodd" d="M7.76882 74.3855V19.4596C28.0737 12.3781 55.5588 16.7675 55.5588 16.7675L56.2651 13.6364C29.5745 9.51034 6.38574 18.9036 5.38521 19.3718C23.8362 7.1986 50.9093 8.42762 50.9093 8.42762V5.32579C20.0106 6.43777 2.29533 19.3718 2.29533 19.3718C15.3905 4.79906 36.4311 3.10183 36.4311 3.10183L36.4605 0C14.8902 2.25322 0 19.3718 0 19.3718V74.9707H7.62168H7.76882V74.9415C32.9586 68.65 56.5594 74.9707 56.5594 74.9707L54.5583 70.9032C31.5461 68.3281 12.1829 73.1565 7.76882 74.3855Z" fill="#2A5CAA"/>
<path d="M49.232 39.6508H36.4605V27.2727H26.8378V39.6508H14.0663V48.9856H26.8378V61.3637H36.4605V48.9856H49.232V39.6508Z" fill="#ED1847"/>
<path d="M62.9745 54.0773H65.3582V57.4717H68.5363V54.0773H70.9494V63.3828H68.5363V59.5494H65.3582V63.3828H62.9745V54.0773Z" fill="#2A5CAA"/>
<path d="M75.0986 54.0773H77.5411L80.9841 63.3828H78.4827L77.9236 61.7148H74.6866L74.0981 63.3828H71.6262L75.0986 54.0773ZM75.2457 59.9298H77.3351L76.3051 56.6816H76.2757L75.2457 59.9298Z" fill="#2A5CAA"/>
<path d="M81.6609 54.0773H84.1328L87.3404 59.8127H87.3698V54.0773H89.6357V63.3828H87.1638L83.9562 57.5888H83.9268V63.3828H81.6609V54.0773Z" fill="#2A5CAA"/>
<path d="M90.9305 58.73C90.9305 58.057 91.0188 57.4132 91.2248 56.8279C91.4308 56.2427 91.7251 55.7159 92.1076 55.277C92.4902 54.8381 92.961 54.4869 93.5496 54.2528C94.1087 53.9895 94.7561 53.8724 95.4918 53.8724C96.2275 53.8724 96.8749 53.9895 97.434 54.2528C97.9931 54.5162 98.464 54.8381 98.8759 55.277C99.2585 55.7159 99.5528 56.2427 99.7588 56.8279C99.9648 57.4132 100.053 58.057 100.053 58.73C100.053 59.403 99.9648 60.0468 99.7588 60.6321C99.5528 61.2173 99.2585 61.744 98.8759 62.183C98.4934 62.6219 98.0225 62.9731 97.434 63.2072C96.8749 63.4705 96.2275 63.5876 95.4918 63.5876C94.7561 63.5876 94.1087 63.4705 93.5496 63.2072C92.9905 62.9438 92.5196 62.6219 92.1076 62.183C91.7251 61.744 91.4308 61.2173 91.2248 60.6321C91.0188 60.0468 90.9305 59.403 90.9305 58.73ZM93.3436 58.73C93.3436 59.0811 93.373 59.403 93.4613 59.7542C93.5496 60.0761 93.6673 60.3687 93.8439 60.6321C94.0204 60.8954 94.2264 61.1003 94.5207 61.2466C94.7855 61.3929 95.1092 61.4807 95.5212 61.4807C95.9038 61.4807 96.2275 61.3929 96.5217 61.2466C96.7866 61.1003 97.022 60.8954 97.1986 60.6321C97.3751 60.3687 97.4929 60.0761 97.5811 59.7542C97.6694 59.4323 97.6988 59.0811 97.6988 58.73C97.6988 58.3788 97.6694 58.057 97.5811 57.7058C97.4929 57.3839 97.3751 57.0913 97.1986 56.8279C97.022 56.5646 96.816 56.3597 96.5217 56.2134C96.2569 56.0671 95.9332 55.9793 95.5212 55.9793C95.1387 55.9793 94.815 56.0671 94.5207 56.2134C94.2558 56.3597 94.0204 56.5646 93.8439 56.8279C93.6673 57.0913 93.5496 57.3839 93.4613 57.7058C93.373 58.057 93.3436 58.3788 93.3436 58.73Z" fill="#2A5CAA"/>
<path d="M103.761 54.0773H101.348V63.3828H103.761V54.0773Z" fill="#2A5CAA"/>
<path d="M109.499 54.0773H113.06L114.649 60.2809H114.678L116.267 54.0773H119.799V63.3828H117.533V56.3305L115.591 63.3828H113.737L111.795 56.3305H111.765V63.3828H109.499V54.0773Z" fill="#2A5CAA"/>
<path d="M121.476 54.0773H128.833V56.0379H123.889V57.6473H128.421V59.5201H123.889V61.3051H128.98V63.3828H121.476V54.0773Z" fill="#2A5CAA"/>
<path d="M130.334 54.0773H134.306C135.013 54.0773 135.66 54.1943 136.219 54.3992C136.778 54.604 137.249 54.9259 137.632 55.3063C138.014 55.716 138.309 56.1842 138.515 56.7694C138.721 57.3254 138.838 57.9985 138.838 58.7008C138.838 59.4616 138.721 60.1346 138.515 60.7199C138.309 61.3051 138.014 61.8026 137.602 62.183C137.22 62.5927 136.719 62.8853 136.16 63.0901C135.601 63.295 134.983 63.3828 134.277 63.3828H130.304L130.334 54.0773ZM132.747 61.3051H133.894C134.365 61.3051 134.748 61.2466 135.072 61.1296C135.395 61.0418 135.66 60.8662 135.866 60.6614C136.072 60.4565 136.219 60.1932 136.307 59.8713C136.396 59.5494 136.455 59.1397 136.455 58.6715C136.455 57.8229 136.249 57.1791 135.807 56.7694C135.366 56.3598 134.748 56.1549 133.924 56.1549H132.776V61.3051H132.747Z" fill="#2A5CAA"/>
<path d="M142.576 54.0773H140.162V63.3828H142.576V54.0773Z" fill="#2A5CAA"/>
<path d="M150.374 57.4132C150.315 56.945 150.109 56.5938 149.785 56.3305C149.462 56.0964 149.02 55.9793 148.52 55.9793C148.137 55.9793 147.814 56.0671 147.519 56.2134C147.254 56.3597 147.019 56.5646 146.842 56.8279C146.666 57.0913 146.548 57.3839 146.46 57.7058C146.372 58.0277 146.342 58.3788 146.342 58.73C146.342 59.0811 146.372 59.403 146.46 59.7542C146.548 60.0761 146.666 60.3687 146.842 60.6321C147.019 60.8954 147.225 61.1003 147.519 61.2466C147.784 61.3929 148.108 61.4807 148.52 61.4807C149.079 61.4807 149.52 61.3344 149.844 61.0125C150.168 60.7198 150.344 60.2809 150.374 59.7542H152.787C152.757 60.3687 152.61 60.8954 152.404 61.3636C152.169 61.8318 151.875 62.2415 151.521 62.5634C151.139 62.8853 150.727 63.1486 150.227 63.295C149.726 63.4705 149.197 63.5583 148.608 63.5583C147.902 63.5583 147.284 63.4413 146.695 63.1779C146.136 62.9145 145.636 62.5926 145.253 62.1537C144.841 61.7148 144.547 61.188 144.341 60.6028C144.135 60.0175 144.017 59.3738 144.017 58.7007C144.017 58.0277 144.135 57.3839 144.341 56.7987C144.547 56.2134 144.871 55.6867 145.253 55.2477C145.665 54.8088 146.136 54.4577 146.695 54.2236C147.254 53.9602 147.902 53.8431 148.608 53.8431C149.108 53.8431 149.609 53.9309 150.109 54.0772C150.609 54.2236 151.051 54.4577 151.433 54.7503C151.816 55.0429 152.169 55.4233 152.404 55.8623C152.669 56.3012 152.787 56.7987 152.816 57.3546H150.374V57.4132Z" fill="#2A5CAA"/>
<path d="M156.583 54.0773H159.025L162.468 63.3828H159.967L159.408 61.7148H156.171L155.582 63.3828H153.111L156.583 54.0773ZM156.73 59.9298H158.819L157.789 56.6816H157.76L156.73 59.9298Z" fill="#2A5CAA"/>
<path d="M163.175 54.0773H165.588V61.3051H169.884V63.3828H163.175V54.0773Z" fill="#2A5CAA"/>
<path d="M183.156 59.5494C183.156 60.8955 182.832 61.9196 182.185 62.5927C181.537 63.2657 180.507 63.6169 179.124 63.6169C177.712 63.6169 176.711 63.295 176.064 62.5927C175.416 61.9196 175.093 60.8955 175.093 59.5494V54.0773H177.506V59.6957C177.506 60.2809 177.624 60.7491 177.859 61.0418C178.094 61.3344 178.506 61.51 179.124 61.51C179.742 61.51 180.125 61.3637 180.39 61.0418C180.625 60.7491 180.743 60.2809 180.743 59.6957V54.0773H183.156V59.5494Z" fill="#2A5CAA"/>
<path d="M184.716 54.0773H187.187L190.395 59.8127H190.424V54.0773H192.69V63.3828H190.218L187.011 57.5888H186.981V63.3828H184.716V54.0773Z" fill="#2A5CAA"/>
<path d="M196.751 54.0773H194.338V63.3828H196.751V54.0773Z" fill="#2A5CAA"/>
<path d="M203.137 63.3828H200.371L197.458 54.0773H199.959L201.754 61.0125H201.783L203.608 54.0773H206.109L203.137 63.3828Z" fill="#2A5CAA"/>
<path d="M206.815 54.0773H214.172V56.0379H209.199V57.6473H213.731V59.5494H209.199V61.3051H214.29V63.3828H206.815V54.0773Z" fill="#2A5CAA"/>
<path d="M215.673 54.0773H220.382C220.793 54.0773 221.176 54.1358 221.559 54.2236C221.941 54.3114 222.294 54.4869 222.589 54.6918C222.883 54.8966 223.148 55.1892 223.324 55.5111C223.501 55.833 223.589 56.2427 223.589 56.7109C223.589 57.2084 223.471 57.6766 223.236 58.1155C223.001 58.5544 222.647 58.8471 222.147 59.0519V59.0812C222.383 59.1397 222.589 59.2567 222.765 59.4031C222.942 59.5494 223.059 59.7542 223.177 59.959C223.295 60.1639 223.354 60.398 223.413 60.6321C223.471 60.8662 223.501 61.1003 223.53 61.3051C223.53 61.3929 223.56 61.5392 223.56 61.7441C223.56 61.9489 223.589 62.1537 223.619 62.3586C223.648 62.5634 223.677 62.7683 223.736 62.9731C223.795 63.1779 223.854 63.295 223.942 63.3828H221.559C221.5 63.295 221.47 63.2072 221.441 63.0609C221.411 62.9146 221.382 62.7683 221.353 62.6219C221.323 62.4756 221.323 62.3293 221.323 62.2123C221.323 62.0952 221.294 61.9782 221.294 61.9196C221.264 61.6855 221.264 61.4514 221.205 61.2173C221.176 60.9832 221.117 60.7784 220.999 60.6028C220.911 60.4273 220.764 60.2809 220.617 60.1639C220.44 60.0468 220.234 59.9883 219.94 59.9883H218.116V63.3828H215.703L215.673 54.0773ZM218.086 58.1448H220.117C220.47 58.1448 220.764 58.057 220.941 57.8521C221.117 57.6766 221.235 57.3839 221.235 57.0328C221.235 56.6816 221.117 56.4183 220.882 56.272C220.646 56.1257 220.352 56.0379 220.028 56.0379H218.116V58.1448H218.086Z" fill="#2A5CAA"/>
<path d="M226.885 60.2809C226.914 60.8369 227.091 61.2173 227.385 61.4222C227.709 61.627 228.121 61.744 228.621 61.744C228.798 61.744 228.974 61.7148 229.151 61.6855C229.327 61.6563 229.475 61.5977 229.622 61.5099C229.769 61.4222 229.857 61.3344 229.945 61.2173C230.034 61.1003 230.063 60.954 230.063 60.7784C230.063 60.5735 229.975 60.398 229.828 60.2809C229.681 60.1639 229.475 60.0468 229.239 59.9298C228.974 59.842 228.709 59.7542 228.386 59.6664C228.062 59.6079 227.738 59.5201 227.415 59.403C227.091 59.3153 226.767 59.1982 226.444 59.0519C226.12 58.9348 225.826 58.7593 225.59 58.5544C225.325 58.3496 225.119 58.0862 224.972 57.7936C224.825 57.501 224.737 57.1206 224.737 56.7109C224.737 56.2134 224.854 55.7745 225.09 55.4233C225.325 55.0722 225.62 54.7795 225.973 54.5454C226.326 54.3113 226.738 54.165 227.179 54.048C227.621 53.9309 228.062 53.9017 228.503 53.9017C228.974 53.9017 229.416 53.9602 229.857 54.0772C230.299 54.1943 230.711 54.3699 231.034 54.604C231.387 54.8381 231.652 55.16 231.888 55.5404C232.094 55.9208 232.211 56.3597 232.211 56.8865H229.798C229.798 56.6816 229.769 56.506 229.681 56.3597C229.592 56.2134 229.475 56.0964 229.327 56.0086C229.18 55.9208 229.033 55.8623 228.857 55.833C228.68 55.8037 228.503 55.7745 228.327 55.7745C228.209 55.7745 228.062 55.7745 227.915 55.8037C227.768 55.833 227.65 55.8623 227.532 55.9208C227.415 55.9793 227.326 56.0671 227.268 56.1549C227.209 56.2427 227.15 56.389 227.15 56.5353C227.15 56.7109 227.238 56.8572 227.385 56.9742C227.532 57.0913 227.738 57.1791 228.003 57.2669C228.268 57.3547 228.533 57.4424 228.857 57.501C229.18 57.5595 229.504 57.6473 229.828 57.7351C230.151 57.8229 230.505 57.9399 230.799 58.0862C231.123 58.2325 231.417 58.3788 231.652 58.5837C231.917 58.7885 232.094 59.0519 232.27 59.3445C232.417 59.6371 232.506 59.9883 232.506 60.4272C232.506 61.0125 232.388 61.5099 232.152 61.9196C231.917 62.3293 231.623 62.6512 231.24 62.8853C230.858 63.1194 230.446 63.295 229.945 63.412C229.475 63.5291 228.974 63.5583 228.445 63.5583C227.915 63.5583 227.415 63.4998 226.914 63.3828C226.444 63.2657 226.002 63.0609 225.649 62.7975C225.266 62.5341 224.972 62.183 224.766 61.7733C224.56 61.3636 224.443 60.8369 224.443 60.2517H226.885V60.2809Z" fill="#2A5CAA"/>
<path d="M236.066 54.0773H233.653V63.3828H236.066V54.0773Z" fill="#2A5CAA"/>
<path d="M245.042 56.1842H242.275V63.412H239.892V56.1842H237.126V54.0773H245.042V56.1842Z" fill="#2A5CAA"/>
<path d="M250.809 59.9298V63.412H248.396V59.9298L245.042 54.0773H247.749L249.603 57.8814L251.427 54.0773H254.164L250.809 59.9298Z" fill="#2A5CAA"/>
<path d="M258.784 54.0773H261.197V57.4717H264.375V54.0773H266.759V63.412H264.375V59.5786H261.197V63.412H258.784V54.0773Z" fill="#2A5CAA"/>
<path d="M268.054 58.7593C268.054 58.0862 268.142 57.4424 268.348 56.8572C268.554 56.2719 268.848 55.7452 269.231 55.3063C269.613 54.8673 270.084 54.5162 270.673 54.2821C271.232 54.0187 271.879 53.9017 272.615 53.9017C273.351 53.9017 273.998 54.0187 274.557 54.2821C275.116 54.5454 275.587 54.8673 275.999 55.3063C276.382 55.7452 276.676 56.2719 276.882 56.8572C277.088 57.4424 277.176 58.0862 277.176 58.7593C277.176 59.4323 277.088 60.0761 276.882 60.6613C276.676 61.2466 276.382 61.7733 275.999 62.2122C275.617 62.6512 275.146 63.0023 274.557 63.2364C273.998 63.4998 273.351 63.6168 272.615 63.6168C271.879 63.6168 271.232 63.4998 270.673 63.2364C270.114 62.9731 269.643 62.6512 269.231 62.2122C268.848 61.7733 268.554 61.2466 268.348 60.6613C268.142 60.0468 268.054 59.4323 268.054 58.7593ZM270.467 58.7593C270.467 59.1104 270.496 59.4323 270.585 59.7835C270.673 60.1053 270.791 60.398 270.967 60.6613C271.144 60.9247 271.35 61.1295 271.644 61.2758C271.909 61.4222 272.233 61.5099 272.644 61.5099C273.027 61.5099 273.351 61.4222 273.645 61.2758C273.91 61.1295 274.145 60.9247 274.322 60.6613C274.498 60.398 274.616 60.1053 274.704 59.7835C274.793 59.4616 274.822 59.1104 274.822 58.7593C274.822 58.4081 274.793 58.0862 274.704 57.7351C274.616 57.4132 274.498 57.1206 274.322 56.8572C274.145 56.5938 273.939 56.389 273.645 56.2427C273.38 56.0964 273.056 56.0086 272.644 56.0086C272.262 56.0086 271.938 56.0964 271.644 56.2427C271.379 56.389 271.144 56.5938 270.967 56.8572C270.791 57.1206 270.673 57.4132 270.585 57.7351C270.496 58.057 270.467 58.4081 270.467 58.7593Z" fill="#2A5CAA"/>
<path d="M280.354 60.2809C280.384 60.8369 280.56 61.2173 280.855 61.4222C281.178 61.627 281.59 61.7441 282.091 61.7441C282.267 61.7441 282.444 61.7148 282.62 61.6855C282.797 61.6563 282.944 61.5977 283.091 61.5099C283.238 61.4222 283.356 61.3344 283.415 61.2173C283.503 61.1003 283.533 60.954 283.533 60.7784C283.533 60.5735 283.444 60.398 283.297 60.2809C283.15 60.1639 282.944 60.0468 282.709 59.9298C282.444 59.842 282.179 59.7542 281.855 59.6664C281.532 59.6079 281.208 59.5201 280.884 59.403C280.56 59.3153 280.237 59.1982 279.913 59.0519C279.589 58.9348 279.295 58.7593 279.06 58.5544C278.795 58.3496 278.589 58.0862 278.442 57.7936C278.294 57.501 278.206 57.1206 278.206 56.7109C278.206 56.2134 278.324 55.7745 278.559 55.4233C278.795 55.0722 279.089 54.7795 279.442 54.5454C279.795 54.3113 280.207 54.165 280.649 54.048C281.09 53.9309 281.532 53.9017 281.973 53.9017C282.444 53.9017 282.885 53.9602 283.327 54.0772C283.768 54.1943 284.18 54.3699 284.504 54.6332C284.857 54.8673 285.122 55.1892 285.357 55.5696C285.563 55.9501 285.681 56.389 285.681 56.9157H283.268C283.268 56.7109 283.238 56.5353 283.15 56.389C283.062 56.2427 282.944 56.1256 282.797 56.0378C282.65 55.9501 282.503 55.8915 282.326 55.8623C282.15 55.833 281.973 55.8037 281.796 55.8037C281.679 55.8037 281.532 55.8037 281.384 55.833C281.237 55.8623 281.12 55.8915 281.002 55.9501C280.884 56.0086 280.796 56.0964 280.737 56.1842C280.678 56.2719 280.619 56.4183 280.619 56.5646C280.619 56.7401 280.708 56.8865 280.855 57.0035C281.002 57.1206 281.208 57.2083 281.473 57.2961C281.738 57.3839 282.002 57.4717 282.326 57.5302C282.65 57.5888 282.973 57.6765 283.297 57.7643C283.621 57.8521 283.974 57.9692 284.268 58.1155C284.592 58.2618 284.886 58.4081 285.122 58.613C285.387 58.8178 285.563 59.0812 285.74 59.3738C285.887 59.6664 285.975 60.0176 285.975 60.4565C285.975 61.0418 285.857 61.5392 285.622 61.9489C285.387 62.3586 285.092 62.6805 284.71 62.9146C284.327 63.1487 283.915 63.3242 283.415 63.4413C282.944 63.5583 282.444 63.5876 281.914 63.5876C281.384 63.5876 280.884 63.5291 280.384 63.412C279.913 63.295 279.472 63.0901 279.118 62.8268C278.736 62.5634 278.442 62.2123 278.236 61.8026C278.03 61.3929 277.912 60.8662 277.912 60.2809H280.354Z" fill="#2A5CAA"/>
<path d="M287.093 54.1065H291.478C291.919 54.1065 292.331 54.165 292.714 54.2528C293.126 54.3699 293.479 54.5162 293.773 54.7795C294.097 55.0136 294.332 55.3355 294.509 55.7159C294.686 56.0964 294.774 56.5646 294.774 57.1206C294.774 57.7058 294.686 58.174 294.538 58.5837C294.391 58.9934 294.156 59.3152 293.862 59.5786C293.567 59.842 293.214 60.0175 292.802 60.1346C292.39 60.2516 291.919 60.3102 291.419 60.3102H289.447V63.412H287.034V54.1065H287.093ZM289.506 58.4081H291.125C291.507 58.4081 291.802 58.3203 292.067 58.1447C292.302 57.9692 292.42 57.6765 292.42 57.2376C292.42 56.7987 292.302 56.4768 292.037 56.3012C291.802 56.1256 291.478 56.0086 291.125 56.0086H289.506V58.4081Z" fill="#2A5CAA"/>
<path d="M298.393 54.1065H295.98V63.412H298.393V54.1065Z" fill="#2A5CAA"/>
<path d="M307.369 56.1842H304.603V63.412H302.219V56.1842H299.453V54.1065H307.369V56.1842Z" fill="#2A5CAA"/>
<path d="M309.752 54.1065H312.195L315.638 63.412H313.136L312.577 61.744H309.34L308.752 63.412H306.28L309.752 54.1065ZM309.9 59.9298H311.989L310.959 56.6816H310.929L309.9 59.9298Z" fill="#2A5CAA"/>
<path d="M316.344 54.1065H318.757V61.3051H323.053V63.412H316.344V54.1065Z" fill="#2A5CAA"/>
<path d="M276.941 37.7487C276.911 37.778 276.853 37.8365 276.823 37.7487C276.823 37.7487 276.853 37.6902 276.882 37.6609C276.911 37.6902 276.941 37.7195 276.941 37.7487Z" fill="#2A5CAA"/>
<path d="M63.1216 30.0234H70.2725C70.9199 30.0234 71.5967 30.0527 72.2441 30.1405C72.8915 30.2282 73.4801 30.4331 74.0098 30.7257C74.5395 31.0183 74.9514 31.3987 75.3046 31.8962C75.6283 32.3937 75.8048 33.0375 75.8048 33.8568C75.8048 34.5591 75.6283 35.1736 75.2457 35.7003C74.8632 36.2271 74.3923 36.666 73.8038 36.9586C74.6277 37.1927 75.2457 37.6609 75.7166 38.3047C76.1874 38.9485 76.4228 39.7093 76.4228 40.5872C76.4228 41.4943 76.2757 42.2844 75.952 42.8697C75.6283 43.4842 75.2163 43.9817 74.6866 44.3328C74.1569 44.7132 73.5095 44.9473 72.8032 45.1229C72.0676 45.2692 71.3025 45.357 70.5079 45.357H63.1805V30.0234H63.1216ZM67.0943 42.1966H70.2725C70.8905 42.1966 71.4202 42.0796 71.8027 41.8162C72.2147 41.5529 72.3913 41.1139 72.3913 40.4701C72.3913 39.7971 72.1853 39.3289 71.7733 39.0655C71.3613 38.8022 70.861 38.6559 70.2431 38.6559H67.0943V42.1966ZM67.0943 36.0808H70.1842C70.3608 36.0808 70.5373 36.0515 70.7433 35.993C70.9493 35.9344 71.0965 35.8467 71.273 35.7589C71.4202 35.6418 71.5673 35.4955 71.6556 35.3199C71.7733 35.1444 71.8027 34.9103 71.8027 34.6176C71.8027 34.0616 71.6262 33.6812 71.3025 33.4471C70.9788 33.2423 70.5962 33.1252 70.1842 33.1252H67.0943V36.0808Z" fill="#2A5CAA"/>
<path d="M78.5711 30.0234H90.7246V33.2423H82.5437V35.9345H90.0183V39.0363H82.5437V41.9625H90.9305V45.4155H78.5416L78.5711 30.0234ZM83.2206 28.7651H80.4838L82.8675 25.5462H86.1045L88.4881 28.7651H85.7513L84.4565 27.0386L83.2206 28.7651ZM83.8091 47.4932V45.913H85.6925V47.4932H83.8091Z" fill="#2A5CAA"/>
<path d="M93.167 30.0234H97.228L102.554 39.5045H102.584V30.0234H106.321V45.3863H102.231L96.9337 35.8174H96.9043V45.3863H93.167V30.0234Z" fill="#2A5CAA"/>
<path d="M108.999 30.0234H112.972V35.6126H118.21V30.0234H122.182V45.4155H118.21V39.0655H112.972V45.4155L108.999 45.3863V30.0234Z" fill="#2A5CAA"/>
<path d="M139.397 45.4155H134.807L130.01 30.0234H134.159L137.131 41.4651H137.19L140.192 30.0234H144.312L139.397 45.4155Z" fill="#2A5CAA"/>
<path d="M149.432 30.0234H145.459V45.3863H149.432V30.0234Z" fill="#2A5CAA"/>
<path d="M152.198 30.0234H164.352V33.2423H156.171V35.9345H163.645V39.0363H156.171V41.9625H164.558V45.4155H152.169L152.198 30.0234ZM156.848 28.7944H154.111L156.495 25.5755H159.732L162.115 28.7944H159.379L158.084 27.0679L156.848 28.7944Z" fill="#2A5CAA"/>
<path d="M166.794 30.0234H170.855L176.182 39.5045H176.211V30.0234H179.948V45.4155H175.858L170.561 35.8174H170.531V45.4155H166.794V30.0234Z" fill="#2A5CAA"/>
<path d="M189.394 39.0363H187.864V35.9345H189.394V30.0234H195.957C197.134 30.0234 198.164 30.199 199.105 30.5501C200.018 30.9013 200.812 31.3987 201.46 32.0718C202.107 32.7448 202.607 33.5349 202.931 34.4713C203.284 35.4077 203.431 36.4904 203.431 37.6609C203.431 38.9192 203.255 40.0312 202.931 40.9969C202.578 41.9625 202.107 42.7526 201.46 43.4257C200.812 44.0695 200.018 44.5669 199.105 44.9181C198.193 45.2692 197.134 45.4155 195.986 45.4155H189.424V39.0363H189.394ZM193.367 35.9345H196.751V39.0363H193.367V41.9625H195.251C196.016 41.9625 196.663 41.8455 197.193 41.6992C197.722 41.5236 198.164 41.2895 198.488 40.9384C198.811 40.5872 199.076 40.1483 199.223 39.6215C199.37 39.0948 199.459 38.4218 199.459 37.6609C199.459 36.2563 199.105 35.2029 198.37 34.5298C197.664 33.8568 196.604 33.5057 195.251 33.5057H193.367V35.9345Z" fill="#2A5CAA"/>
<path d="M205.579 30.0234H209.552V35.6418H214.79V30.0234H218.763V45.4155H214.79V39.0655H209.552V45.4155H205.579V30.0234Z" fill="#2A5CAA"/>
<path d="M235.949 39.6801V45.4155H231.976V39.6801L226.414 30.0234H230.916L233.947 36.2856L236.978 30.0234H241.51L235.949 39.6801Z" fill="#2A5CAA"/>
<path d="M249.132 30.0234H253.105V35.6418H258.343V30.0234H262.315V45.4155H258.343V39.0655H253.105V45.4155H249.132V30.0234Z" fill="#2A5CAA"/>
<path d="M269.172 30.0234H273.204L278.912 45.3863H274.763L273.822 42.6356H268.495L267.524 45.3863H263.434L269.172 30.0234ZM272.909 28.9992H270.349L266.994 25.7803H270.849L272.909 28.9992ZM269.407 39.6801H272.88L271.202 34.2958H271.173L269.407 39.6801Z" fill="#2A5CAA"/>
<path d="M286.74 30.0234H290.831L296.127 39.5045H296.157V30.0234H299.924V45.4155H295.833L290.536 35.8174H290.477V45.4155H286.74V30.0234Z" fill="#2A5CAA"/>
<path d="M302.042 37.6024C302.042 36.5197 302.219 35.5248 302.513 34.5884C302.837 33.652 303.308 32.8326 303.926 32.1303C304.544 31.428 305.309 30.872 306.192 30.4916C307.104 30.0819 308.104 29.8771 309.281 29.8771C310.429 29.8771 311.459 30.0819 312.371 30.4916C313.284 30.9013 314.019 31.4573 314.637 32.1303C315.255 32.8326 315.726 33.652 316.05 34.5884C316.373 35.5248 316.521 36.5197 316.521 37.6024C316.521 38.6851 316.373 39.68 316.05 40.6165C315.726 41.5529 315.255 42.3722 314.637 43.0745C314.019 43.7768 313.254 44.3328 312.371 44.7132C311.459 45.1229 310.459 45.3277 309.281 45.3277C308.134 45.3277 307.104 45.1229 306.192 44.7132C305.309 44.3035 304.544 43.7768 303.926 43.0745C303.308 42.3722 302.837 41.5529 302.513 40.6165C302.219 39.68 302.042 38.6851 302.042 37.6024ZM308.046 28.9992H305.426L307.722 25.8974H310.841L313.136 28.9992H310.488L309.252 27.3312L308.046 28.9992ZM305.868 37.6024C305.868 38.1584 305.927 38.6851 306.044 39.2118C306.162 39.7386 306.368 40.2068 306.633 40.6165C306.898 41.0261 307.251 41.348 307.692 41.6114C308.134 41.8747 308.634 41.9918 309.252 41.9918C309.87 41.9918 310.4 41.8747 310.841 41.6114C311.283 41.348 311.636 41.0261 311.901 40.6165C312.165 40.2068 312.371 39.7386 312.489 39.2118C312.607 38.6851 312.666 38.1584 312.666 37.6024C312.666 37.0464 312.607 36.5197 312.489 35.993C312.371 35.4662 312.165 34.998 311.901 34.5884C311.636 34.1787 311.283 33.8275 310.841 33.5934C310.4 33.3301 309.87 33.213 309.252 33.213C308.634 33.213 308.104 33.3301 307.663 33.5934C307.222 33.8568 306.868 34.1787 306.604 34.5884C306.339 34.998 306.133 35.4662 306.015 35.993C305.927 36.4904 305.868 37.0464 305.868 37.6024Z" fill="#2A5CAA"/>
<path d="M323.23 30.0527H319.257V45.4155H323.23V30.0527Z" fill="#2A5CAA"/>
<path d="M159.437 45.6789H157.525V47.2591H159.437V45.6789Z" fill="#2A5CAA"/>
<path d="M310.429 45.6789H308.516V47.2591H310.429V45.6789Z" fill="#2A5CAA"/>
</svg>
