<svg width="168" height="30" viewBox="0 0 168 30" fill="none" xmlns="http://www.w3.org/2000/svg">
<path d="M71.8137 27.5506H66.6439V2.56854H71.8137V27.5506Z" fill="#423D3D"/>
<path d="M96.5728 7.0548H84.3767C83.0276 7.0548 82.0562 7.2972 81.4626 7.782C80.8582 8.30036 80.556 9.13944 80.556 10.2955C80.556 11.1719 80.815 11.8506 81.3295 12.3242C81.8907 12.7754 82.6678 12.9992 83.668 12.9992H90.2013C92.9211 12.9992 94.8531 13.5437 95.9935 14.6289C97.1232 15.7476 97.688 17.575 97.688 20.1034C97.688 22.6542 97.0369 24.5337 95.7309 25.7345C94.4034 26.9465 92.3239 27.5544 89.4926 27.5544H76.3432V23.1166H88.7191C90.133 23.1166 91.1331 22.8928 91.7159 22.4416C92.2772 22.0127 92.5542 21.293 92.5542 20.2749C92.5542 19.2829 92.2844 18.5371 91.7483 18.0411C91.2123 17.6122 90.3092 17.3997 89.0501 17.3997H83.2255C80.5272 17.3997 78.5521 16.8217 77.3001 15.6656C76.0266 14.4983 75.3898 12.6859 75.3898 10.2246C75.3898 7.603 76.0589 5.6638 77.3973 4.40332C78.714 3.18014 80.7934 2.56854 83.6356 2.56854H96.5728V7.0548Z" fill="#423D3D"/>
<path d="M99.8611 14.8155C99.8611 10.5306 100.832 7.33838 102.775 5.2351C104.686 3.14673 107.625 2.09882 111.597 2.09882C115.579 2.09882 118.526 3.1691 120.436 5.30222C122.346 7.42788 123.3 10.6798 123.3 15.0579C123.3 19.4584 122.346 22.7214 120.436 24.8471C118.504 26.9951 115.558 28.0692 111.597 28.0692C107.56 28.0692 104.596 26.9951 102.707 24.8471C100.811 22.7252 99.8611 19.3801 99.8611 14.8155ZM111.6 6.36132C109.492 6.36132 107.909 7.06988 106.844 8.49071C105.79 9.91155 105.265 12.026 105.265 14.8416C105.265 17.8884 105.768 20.1334 106.779 21.5728C107.801 23.0161 109.409 23.7358 111.604 23.7358C113.766 23.7358 115.363 23.0161 116.392 21.5728C117.425 20.1557 117.939 17.9779 117.939 15.0467C117.939 12.1155 117.425 9.93019 116.392 8.48698C115.356 7.0736 113.759 6.36132 111.6 6.36132Z" fill="#423D3D"/>
<path d="M126.495 16.0833C126.495 12.85 126.674 10.4969 127.038 9.03129C127.38 7.56571 128.009 6.35744 128.93 5.41021C129.83 4.46299 131.031 3.75444 132.535 3.28083C134.017 2.80721 135.848 2.56854 138.032 2.56854H145.555V6.93547H137.622C135.535 6.93547 133.988 7.40908 132.981 8.3563C131.938 9.3259 131.416 10.881 131.416 13.0178H145.555V17.3475H131.416V27.5506H126.495V16.0833Z" fill="#423D3D"/>
<path d="M153.786 2.56854V12.7232H162.856V2.56854H167.777V27.5506H162.856V17.12H153.786V27.5506H148.865V2.56854H153.786Z" fill="#423D3D"/>
<path d="M39.503 11.832C36.3659 13.1895 32.8869 15.3599 25.1124 20.4503C21.2917 22.9526 17.7372 24.0005 14.7548 24.0154C9.91233 24.0154 5.98729 19.9468 5.98729 14.9273C5.98729 9.90773 9.91233 5.83915 14.7548 5.83915C17.0429 5.83915 19.6152 6.65958 22.4753 8.2706C22.4753 8.2706 21.9861 9.64669 21.1262 11.2726C20.0649 13.279 18.4136 15.606 16.4529 16.3257C14.4022 17.0753 12.276 17.135 9.85477 14.931C15.7621 22.4752 25.1016 10.0867 31.5774 5.45131C24.3605 1.58037 19.1835 0.166992 14.7548 0.166992C6.8903 0.166992 0.515259 6.77518 0.515259 14.9273C0.515259 23.0794 6.8903 29.6876 14.7548 29.6876C19.8131 29.6876 24.6159 28.028 29.6562 24.4405C36.1356 19.8312 45.5075 7.3644 51.4292 14.9273C51.127 14.3381 47.6193 8.31535 39.503 11.832Z" fill="url(#paint0_linear_735_209)"/>
<path d="M22.4719 8.27057C22.4719 8.27057 21.9826 9.64665 21.1228 11.2726C20.0615 13.2789 18.4101 15.606 16.4494 16.3257C14.3988 17.0753 12.2725 17.1349 9.85132 14.931C15.7227 16.9746 18.2914 11.3658 22.4719 8.27057Z" fill="#7C323D"/>
<path d="M31.574 5.4474C19.5362 -0.150175 5.86514 3.39632 1.20618 10.3737C3.05897 4.45169 8.42307 0.166809 14.7549 0.166809C19.1872 0.166809 24.3607 1.58019 31.574 5.4474Z" fill="#EE7A9D"/>
<path d="M21.7776 18.0224C24.9147 16.6649 28.3937 14.4945 36.1682 9.40411C39.9889 6.90179 43.5434 5.85388 46.5259 5.83896C51.3683 5.83896 55.2933 9.90755 55.2933 14.9271C55.2933 19.9466 51.3683 24.0152 46.5259 24.0152C44.2377 24.0152 41.6654 23.1948 38.8053 21.5838C38.8053 21.5838 39.2946 20.2077 40.1544 18.5817C41.2157 16.5754 42.867 14.2484 44.8278 13.5286C46.8784 12.7791 49.0046 12.7194 51.4259 14.9234C45.5221 7.38286 36.1826 19.7714 29.7032 24.4031C36.9165 28.2703 42.0935 29.6836 46.5223 29.6836C54.3867 29.6836 60.7618 23.0755 60.7618 14.9234C60.7618 6.775 54.3867 0.166809 46.5223 0.166809C41.464 0.166809 36.6611 1.82632 31.6208 5.41383C25.1414 10.0194 15.7695 22.4862 9.84778 14.9271C10.15 15.5126 13.6577 21.5353 21.7776 18.0224Z" fill="url(#paint1_linear_735_209)"/>
<path d="M38.8053 21.5841C38.8053 21.5841 39.2946 20.208 40.1544 18.582C41.2157 16.5757 42.8671 14.2487 44.8278 13.5289C46.8784 12.7794 49.0047 12.7197 51.4259 14.9237C45.5545 12.88 42.9858 18.4851 38.8053 21.5841Z" fill="#455D82"/>
<path d="M29.7032 24.4032C41.741 30.0008 55.4121 26.4543 60.071 19.4769C58.2218 25.4026 52.8541 29.6838 46.5223 29.6838C42.0936 29.6838 36.9165 28.2741 29.7032 24.4032Z" fill="#76BEEA"/>
<defs>
<linearGradient id="paint0_linear_735_209" x1="51.2491" y1="14.9263" x2="0.533716" y2="14.9263" gradientUnits="userSpaceOnUse">
<stop stop-color="#EC607E"/>
<stop offset="1" stop-color="#E8335E"/>
</linearGradient>
<linearGradient id="paint1_linear_735_209" x1="60.6494" y1="14.9259" x2="9.87778" y2="14.9259" gradientUnits="userSpaceOnUse">
<stop stop-color="#66B2E4"/>
<stop offset="1" stop-color="#327AB9"/>
</linearGradient>
</defs>
</svg>
